# xmcd
#
# Track frame offsets: 
#        150
#        8868
#        21672
#        34565
#        46653
#        59765
#        72047
#        83157
#        96042
#        104294
#        116043
#        126513
#
# Disc length: 1860 seconds
#
# Revision: 0
# Processed by: cddbd v1.5.2PL0 Copyright (c) Steve Scherf et al.
# Submitted via: ExactAudioCopy v1.3
#
DISCID=9f07420c
DTITLE=The Cadillacs - The Crazy Cadillacs
DYEAR=1959
DGENRE=DOO WOP
TTITLE0=My Girl Friend
TTITLE1=Broken Heart
TTITLE2=Betty My Love
TTITLE3=Shock-A-Doo
TTITLE4=Gloria
TTITLE5=Zoom-Boom-Zing
TTITLE6=Don't Be Mad With My Heart
TTITLE7=Window Lady
TTITLE8=Why
TTITLE9=Carelessly
TTITLE10=Baby's Comin' Home To Me
TTITLE11=Let Me Explain
EXTD=
EXTT0=
EXTT1=
EXTT2=
EXTT3=
EXTT4=
EXTT5=
EXTT6=
EXTT7=
EXTT8=
EXTT9=
EXTT10=
EXTT11=
PLAYORDER=
